<svg xmlns="http://www.w3.org/2000/svg" xmlns:xlink="http://www.w3.org/1999/xlink" fill="none" version="1.1" width="20" height="20" viewBox="0 0 20 20"><defs><clipPath id="master_svg0_227_4408"><rect x="0" y="0" width="20" height="20" rx="0"/></clipPath></defs><g clip-path="url(#master_svg0_227_4408)"><g transform="matrix(1,0,0,-1,0,40.859375)"><g><path d="M18.5206671875,39.5702875Q17.8106671875,40.2343875,16.9427671875,40.2343875Q16.0749671875,40.2343875,15.3648671875,39.5702875L14.1814671875,38.3984875L18.0473671875,34.5702875L19.2307671875,35.7421875Q19.9013671875,36.4452875,19.9013671875,37.3046875Q19.9013671875,38.1640875,19.2307671875,38.8671875L18.5206671875,39.5702875ZM6.6863771875,30.9765875Q6.3313471875,30.6249875,6.1735571875,30.1171875L4.9901271875,26.6796875Q4.8323371875,26.1328175,5.2268071875,25.7031275Q5.6607371875,25.3124975,6.2130071875,25.4687475L9.7238571875,26.6406275Q10.1972671875,26.7968775,10.5522671875,27.1484375L17.1794671875,33.7109875L13.3135671875,37.5390875L6.6863771875,30.9765875ZM3.6883471875,37.9296875Q2.0709971875,37.890587499999995,1.0059071875,36.8359875Q-0.0591851125,35.7812875,-0.0986328125,34.1796875L-0.0986328125,24.1796875Q-0.0591851125,22.5781275,1.0059071875,21.5234375Q2.0709971875,20.46875,3.6883471875,20.4296875L13.7869671875,20.4296875Q15.4043671875,20.46875,16.4694671875,21.5234375Q17.5344671875,22.5781275,17.5739671875,24.1796875L17.5739671875,27.9296875Q17.5739671875,28.4765675,17.2189671875,28.8281275Q16.8638671875,29.1796875,16.3116671875,29.1796875Q15.7593671875,29.1796875,15.4043671875,28.8281275Q15.0492671875,28.4765675,15.0492671875,27.9296875L15.0492671875,24.1796875Q15.0492671875,23.6328175,14.6942671875,23.2812475Q14.3392671875,22.9296875,13.7869671875,22.9296875L3.6883471875,22.9296875Q3.1360771875,22.9296875,2.7810471875,23.2812475Q2.4260271875,23.6328175,2.4260271875,24.1796875L2.4260271875,34.1796875Q2.4260271875,34.7265875,2.7810471875,35.0780875Q3.1360771875,35.4296875,3.6883471875,35.4296875L7.4753371875,35.4296875Q8.0275971875,35.4296875,8.3826271875,35.7812875Q8.7376571875,36.1327875,8.7376571875,36.6796875Q8.7376571875,37.2265875,8.3826271875,37.578087499999995Q8.0275971875,37.9296875,7.4753371875,37.9296875L3.6883471875,37.9296875Z" fill="#A8A8A8" fill-opacity="1" style="mix-blend-mode:passthrough"/></g></g></g></svg>